<?xml version="1.0" standalone="no"?>
<!DOCTYPE svg PUBLIC "-//W3C//DTD SVG 20010904//EN"
 "http://www.w3.org/TR/2001/REC-SVG-20010904/DTD/svg10.dtd">
<svg version="1.0" xmlns="http://www.w3.org/2000/svg"
 width="500.000000pt" height="500.000000pt" viewBox="0 0 500.000000 500.000000"
 preserveAspectRatio="xMidYMid meet">

<g transform="translate(0.000000,500.000000) scale(0.100000,-0.100000)"
fill="#000000" stroke="none">
<path d="M1912 3393 l-132 -4 2 -812 3 -812 175 0 175 0 3 348 c1 222 6 347
12 347 6 0 87 -40 180 -88 l170 -89 173 88 c94 49 175 88 179 89 4 0 9 -156
10 -347 l3 -348 180 0 180 0 3 813 2 812 -185 0 -185 0 0 -255 c0 -253 0 -255
-22 -269 -55 -34 -324 -166 -338 -165 -8 0 -91 39 -185 87 l-170 87 -5 260 -5
260 -45 1 c-25 0 -105 -1 -178 -3z"/>
</g>
</svg>
